<?xml version="1.0" standalone="no"?>
<!DOCTYPE svg PUBLIC "-//W3C//DTD SVG 20010904//EN"
 "http://www.w3.org/TR/2001/REC-SVG-20010904/DTD/svg10.dtd">
<svg version="1.0" xmlns="http://www.w3.org/2000/svg"
 width="48.000000pt" height="48.000000pt" viewBox="0 0 48.000000 48.000000"
 preserveAspectRatio="xMidYMid meet">

<g transform="translate(0.000000,48.000000) scale(0.100000,-0.100000)"
fill="#000000" stroke="none">
<path d="M326 404 c-23 -23 -23 -305 0 -328 20 -20 48 -20 68 0 13 13 16 42
16 164 0 157 -6 180 -50 180 -10 0 -26 -7 -34 -16z m54 -164 c0 -143 -1 -150
-20 -150 -19 0 -20 7 -20 150 0 143 1 150 20 150 19 0 20 -7 20 -150z"/>
<path d="M206 304 c-23 -22 -23 -206 0 -228 20 -20 48 -20 68 0 12 12 16 38
16 114 0 104 -10 130 -50 130 -10 0 -26 -7 -34 -16z m54 -114 c0 -93 -1 -100
-20 -100 -19 0 -20 7 -20 100 0 93 1 100 20 100 19 0 20 -7 20 -100z"/>
<path d="M86 204 c-21 -21 -21 -107 0 -128 40 -40 84 -7 84 64 0 52 -18 80
-50 80 -10 0 -26 -7 -34 -16z m54 -64 c0 -43 -3 -50 -20 -50 -17 0 -20 7 -20
50 0 43 3 50 20 50 17 0 20 -7 20 -50z"/>
</g>
</svg>
